<?xml version="1.0" encoding="UTF-8" standalone="no"?>
<svg width="123px" height="113px" viewBox="0 0 123 113" version="1.1" xmlns="http://www.w3.org/2000/svg" xmlns:xlink="http://www.w3.org/1999/xlink">
    <!-- Generator: Sketch 41 (35326) - http://www.bohemiancoding.com/sketch -->
    <title>Rectangle</title>
    <desc>Created with Sketch.</desc>
    <defs>
        <path d="M105.07275,91.2701111 C106.223313,102.177222 112.017125,108.650444 112.078625,108.719444 C112.765375,109.470778 112.939625,110.559444 112.521938,111.484556 C112.106813,112.404556 111.197125,112.994889 110.1875,112.994889 L110.15675,112.994889 C109.485375,112.987222 93.9540625,112.657556 83.34275,100.137889 L74.3048125,100.137889 L74.30225,100.137889 C63.5525625,100.135333 53.3640625,97.3472222 44.838625,92.0751111 C43.6368125,91.334 43.2678125,89.7623333 44.0135,88.5612222 C44.7591875,87.3652222 46.3376875,86.9921111 47.5420625,87.7383333 C55.2551875,92.5095556 64.5160625,95.0293333 74.3125,95.0293333 L84.5625,95.0293333 C85.35175,95.0293333 86.094875,95.3896667 86.5791875,96.0081111 C92.1398125,103.074222 99.7299375,105.939 104.796,107.101778 C102.67425,103.322111 100.298813,97.5363333 99.829875,90.0715556 C99.7709375,89.1132222 100.25525,88.2008889 101.0855,87.7127778 C111.912063,81.352 117.875,71.7098889 117.875,60.56 C117.875,54.3193333 113.02675,45.2931111 105.813313,38.1043333 C104.811375,37.1051111 104.811375,35.49 105.813313,34.4933333 C106.81525,33.4941111 108.43475,33.4941111 109.436688,34.4933333 C117.677688,42.7043333 123,52.9342222 123,60.56 C123,73.1026667 116.650125,83.951 105.07275,91.2701111 Z M48.69775,79.7062222 L48.6951875,79.7062222 L39.65725,79.7062222 C29.0459375,92.2284444 13.514625,92.5581111 12.84325,92.5657778 L12.8125,92.5657778 C11.8003125,92.5657778 10.8829375,91.9754444 10.4729375,91.0528889 C10.0578125,90.1226667 10.2320625,89.0391111 10.921375,88.2877778 C10.982875,88.2213333 16.7766875,81.7481111 17.92725,70.841 C6.349875,63.5218889 0,52.6735556 0,40.1334444 C0,18.3038889 21.8401875,0.545333333 48.6875,0.545333333 C75.5348125,0.545333333 97.375,18.3038889 97.375,40.1334444 C97.375,61.9527778 75.537375,79.7062222 48.69775,79.7062222 Z M48.6875,5.65388889 C24.666625,5.65388889 5.125,21.1201111 5.125,40.1334444 C5.125,51.2833333 11.0879375,60.9254444 21.9145,67.2862222 C22.74475,67.7717778 23.2290625,68.6841111 23.170125,69.6424444 C22.7011875,77.1046667 20.32575,82.8955556 18.204,86.6726667 C23.2700625,85.5124444 30.8601875,82.6451111 36.4208125,75.579 C36.905125,74.9631111 37.64825,74.6002222 38.4375,74.6002222 L48.6875,74.6002222 C72.708375,74.6002222 92.25,59.1365556 92.25,40.1334444 C92.25,21.1201111 72.708375,5.65388889 48.6875,5.65388889 Z" id="path-1"></path>
        <linearGradient x1="3.061617e-15%" y1="50%" x2="100%" y2="50%" id="linearGradient-3">
            <stop stop-color="#F9D067" offset="0%"></stop>
            <stop stop-color="#F8B152" offset="100%"></stop>
        </linearGradient>
    </defs>
    <g id="Page-1" stroke="none" stroke-width="1" fill="none" fill-rule="evenodd">
        <g id="Rectangle">
            <mask id="mask-2" fill="white">
                <use xlink:href="#path-1"></use>
            </mask>
            <use id="Mask" fill="#000000" xlink:href="#path-1"></use>
            <rect fill="url(#linearGradient-3)" mask="url(#mask-2)" x="0" y="0.555555556" width="123" height="112.444444"></rect>
        </g>
    </g>
</svg>